<svg width="100" height="86" viewBox="0 0 100 86" fill="none" xmlns="http://www.w3.org/2000/svg">
<path d="M84.6104 75.25H55.0479V25.7412C58.9968 24.0128 61.9614 20.4536 62.8399 16.125H84.6104C86.0952 16.125 87.2979 14.9223 87.2979 13.4375V8.0625C87.2979 6.57766 86.0952 5.375 84.6104 5.375H60.3624C57.91 2.12984 54.0552 0 49.6729 0C45.2905 0 41.4357 2.12984 38.9833 5.375H14.7354C13.2505 5.375 12.0479 6.57766 12.0479 8.0625V13.4375C12.0479 14.9223 13.2505 16.125 14.7354 16.125H36.5058C37.3843 20.4519 40.3472 24.0128 44.2979 25.7412V75.25H14.7354C13.2505 75.25 12.0479 76.4527 12.0479 77.9375V83.3125C12.0479 84.7973 13.2505 86 14.7354 86H84.6104C86.0952 86 87.2979 84.7973 87.2979 83.3125V77.9375C87.2979 76.4527 86.0952 75.25 84.6104 75.25Z" fill="#00255D"/>
<rect x="63.7319" y="23.8995" width="35.4066" height="35.4066" rx="17.7033" fill="#FF4471"/>
<rect y="23.8995" width="35.4066" height="35.4066" rx="8" fill="#FF4471"/>
</svg>
