<svg width="853" height="682" viewBox="0 0 853 682" fill="none" xmlns="http://www.w3.org/2000/svg">
<path d="M341.2 447.562H341.173C341.173 426.01 342.959 435.934 227.818 205.786C204.293 158.778 136.933 158.685 113.369 205.786C-2.7456 437.905 0.0266563 426.69 0.0266563 447.562H0C0 506.412 76.3835 554.125 170.6 554.125C264.817 554.125 341.2 506.412 341.2 447.562ZM170.6 234.438L266.563 426.25H74.6375L170.6 234.438ZM852.973 447.562C852.973 426.01 854.759 435.934 739.618 205.786C716.094 158.778 648.733 158.685 625.169 205.786C509.054 437.905 511.827 426.69 511.827 447.562H511.8C511.8 506.412 588.184 554.125 682.4 554.125C776.617 554.125 853 506.412 853 447.562H852.973ZM586.438 426.25L682.4 234.438L778.363 426.25H586.438ZM703.725 596.75H469.15V204.134C500.484 190.427 524.009 162.201 530.979 127.875H703.725C715.507 127.875 725.05 118.338 725.05 106.562V63.9375C725.05 52.1623 715.507 42.625 703.725 42.625H511.32C491.861 16.8902 461.273 0 426.5 0C391.727 0 361.139 16.8902 341.68 42.625H149.275C137.493 42.625 127.95 52.1623 127.95 63.9375V106.562C127.95 118.338 137.493 127.875 149.275 127.875H322.021C328.991 162.188 352.502 190.427 383.85 204.134V596.75H149.275C137.493 596.75 127.95 606.287 127.95 618.062V660.688C127.95 672.463 137.493 682 149.275 682H703.725C715.507 682 725.05 672.463 725.05 660.688V618.062C725.05 606.287 715.507 596.75 703.725 596.75Z" fill="black"/>
</svg>
