<svg width="265" height="265" viewBox="0 0 265 265" fill="none" xmlns="http://www.w3.org/2000/svg">
<path d="M213.174 205.025H146.378V93.1613C155.301 89.2561 161.999 81.214 163.984 71.4338H213.174C216.529 71.4338 219.246 68.7165 219.246 65.3615V53.2169C219.246 49.862 216.529 47.1446 213.174 47.1446H158.386C152.845 39.8123 144.135 35 134.234 35C124.332 35 115.622 39.8123 110.081 47.1446H55.2937C51.9388 47.1446 49.2214 49.862 49.2214 53.2169V65.3615C49.2214 68.7165 51.9388 71.4338 55.2937 71.4338H104.483C106.468 81.2102 113.163 89.2561 122.089 93.1613V205.025H55.2937C51.9388 205.025 49.2214 207.742 49.2214 211.097V223.241C49.2214 226.596 51.9388 229.314 55.2937 229.314H213.174C216.529 229.314 219.246 226.596 219.246 223.241V211.097C219.246 207.742 216.529 205.025 213.174 205.025Z" fill="#3F3068"/>
<rect x="166" y="89" width="80" height="80" rx="40" fill="#F97A52"/>
<rect x="22" y="89" width="80" height="80" rx="13" fill="#F97A52"/>
</svg>
