<svg width="128" height="128" viewBox="0 0 128 128" fill="none" xmlns="http://www.w3.org/2000/svg">
<rect width="128" height="128" rx="20" fill="white"/>
<path d="M98.6102 96.25H69.0477V46.7412C72.9967 45.0128 75.9613 41.4536 76.8398 37.125H98.6102C100.095 37.125 101.298 35.9223 101.298 34.4375V29.0625C101.298 27.5777 100.095 26.375 98.6102 26.375H74.3623C71.9099 23.1298 68.055 21 63.6727 21C59.2904 21 55.4355 23.1298 52.9832 26.375H28.7352C27.2504 26.375 26.0477 27.5777 26.0477 29.0625V34.4375C26.0477 35.9223 27.2504 37.125 28.7352 37.125H50.5057C51.3841 41.4519 54.3471 45.0128 58.2977 46.7412V96.25H28.7352C27.2504 96.25 26.0477 97.4527 26.0477 98.9375V104.313C26.0477 105.797 27.2504 107 28.7352 107H98.6102C100.095 107 101.298 105.797 101.298 104.313V98.9375C101.298 97.4527 100.095 96.25 98.6102 96.25Z" fill="#3F3068"/>
<rect x="77.7321" y="44.8995" width="35.4066" height="35.4066" rx="17.7033" fill="#F97A52"/>
<rect x="14" y="44.8995" width="35.4066" height="35.4066" rx="8" fill="#F97A52"/>
</svg>
