<svg width="128" height="128" viewBox="0 0 128 128" fill="none" xmlns="http://www.w3.org/2000/svg">
<rect width="128" height="128" rx="20" fill="white"/>
<path d="M98.6104 96.25H69.0479V46.7412C72.9968 45.0128 75.9614 41.4536 76.8399 37.125H98.6104C100.095 37.125 101.298 35.9223 101.298 34.4375V29.0625C101.298 27.5777 100.095 26.375 98.6104 26.375H74.3624C71.91 23.1298 68.0552 21 63.6729 21C59.2905 21 55.4357 23.1298 52.9833 26.375H28.7354C27.2505 26.375 26.0479 27.5777 26.0479 29.0625V34.4375C26.0479 35.9223 27.2505 37.125 28.7354 37.125H50.5058C51.3843 41.4519 54.3472 45.0128 58.2979 46.7412V96.25H28.7354C27.2505 96.25 26.0479 97.4527 26.0479 98.9375V104.313C26.0479 105.797 27.2505 107 28.7354 107H98.6104C100.095 107 101.298 105.797 101.298 104.313V98.9375C101.298 97.4527 100.095 96.25 98.6104 96.25Z" fill="#00255D"/>
<rect x="77.7319" y="44.8995" width="35.4066" height="35.4066" rx="17.7033" fill="#FF4471"/>
<rect x="14" y="44.8995" width="35.4066" height="35.4066" rx="8" fill="#FF4471"/>
</svg>
